<?xml version="1.0" encoding="utf-8"?>
<!-- Generator: Adobe Illustrator 16.0.0, SVG Export Plug-In . SVG Version: 6.00 Build 0)  -->
<!DOCTYPE svg PUBLIC "-//W3C//DTD SVG 1.1//EN" "http://www.w3.org/Graphics/SVG/1.1/DTD/svg11.dtd">
<svg version="1.1" id="Layer_1" xmlns="http://www.w3.org/2000/svg" xmlns:xlink="http://www.w3.org/1999/xlink" x="0px" y="0px"
	 width="600px" height="200px" viewBox="0 0 600 200" enable-background="new 0 0 600 200" xml:space="preserve">
<linearGradient id="SVGID_1_" gradientUnits="userSpaceOnUse" x1="300.0244" y1="49.3535" x2="300.0244" y2="198.7588">
	<stop  offset="0.4378" style="stop-color:#666666"/>
	<stop  offset="1" style="stop-color:#000000"/>
</linearGradient>
<polygon fill="url(#SVGID_1_)" stroke="#000000" stroke-miterlimit="10" points="595.365,182.34 595.365,112.876 583.009,112.876 
	583.009,182.34 558.299,182.34 558.299,134.658 541.31,134.658 541.31,182.34 532.814,182.34 532.814,86.975 518.144,86.975 
	518.144,48.123 505.787,48.123 505.787,86.975 498.836,86.975 498.836,68.138 471.037,68.138 471.037,86.975 464.086,86.975 
	464.086,42.236 450.959,42.236 450.959,86.975 441.693,86.975 441.693,182.34 436.286,182.34 436.286,56.365 413.12,56.365 
	413.12,182.34 407.715,182.34 407.715,64.605 392.269,64.605 392.269,48.712 374.507,48.712 374.507,64.605 361.381,64.605 
	361.381,182.34 357.52,182.34 357.52,111.698 344.391,111.698 344.391,97.571 340.529,97.571 340.529,82.266 328.175,82.266 
	328.175,97.571 310.413,97.571 310.413,111.698 303.464,111.698 303.464,182.34 297.285,182.34 297.285,124.062 275.663,124.062 
	275.663,59.309 260.99,59.309 260.99,124.062 252.496,124.062 252.496,95.217 245.546,95.217 245.546,124.062 233.962,124.062 
	233.962,74.613 206.163,74.613 206.163,124.062 193.807,124.062 193.807,182.34 179.134,182.34 179.134,91.096 171.412,91.096 
	171.412,73.436 162.146,73.436 162.146,91.096 154.424,91.096 154.424,75.202 132.801,75.202 132.801,91.096 124.306,91.096 
	124.306,182.34 115.039,182.34 115.039,124.062 89.556,124.062 89.556,149.963 78.746,149.963 78.746,94.627 64.072,94.627 
	64.072,149.963 55.578,149.963 55.578,182.34 50.172,182.34 50.172,138.188 24.689,138.188 24.689,182.34 17.739,182.34 
	17.739,125.239 3.839,125.239 3.839,182.34 0.08,182.34 0.08,200 599.97,200 599.97,182.34 "/>
</svg>
