<?xml version="1.0" encoding="utf-8"?>
<!-- Generator: Adobe Illustrator 16.0.0, SVG Export Plug-In . SVG Version: 6.00 Build 0)  -->
<!DOCTYPE svg PUBLIC "-//W3C//DTD SVG 1.1//EN" "http://www.w3.org/Graphics/SVG/1.1/DTD/svg11.dtd">
<svg version="1.1" id="Layer_1" xmlns="http://www.w3.org/2000/svg" xmlns:xlink="http://www.w3.org/1999/xlink" x="0px" y="0px"
	 width="800px" height="302px" viewBox="0 0 800 302" enable-background="new 0 0 800 302" xml:space="preserve">
<g>
	<path d="M455.238,165.373h74.11c0,0,19.526,1.502,46.57-16.023c27.039-17.525,196.79-126.688,196.79-126.688
		s18.025-14.021,22.532-9.013c4.507,5.008-15.021,20.03-15.021,20.03L576.417,178.393c0,0-18.526,16.023-47.068,16.023
		c-28.543,0-78.117,0-78.117,0L455.238,165.373z"/>
	<path d="M363.103,200.425l-57.865,46.301c0,0-14.31,13.374-46.374,16.583c-32.061,3.209-232.805,24.029-232.805,24.029
		s-22.836,0.313-23.227,7.039c-0.389,6.726,24.244,6.255,24.244,6.255l249.543-14.334c0,0,24.476,0.938,46.763-16.896
		c22.286-17.833,60.994-48.803,60.994-48.803L363.103,200.425z"/>
	<path d="M369.111,126.816l-19.029-43.564c0,0-3.003-10.015,3.506-2.503l16.023,39.559L369.111,126.816z"/>
	<path d="M366.107,134.327c0,0-2.004-30.544,23.534-35.052c25.54-4.506,38.055,23.536,38.055,23.536s-30.043-1.502-38.556,3.004
		c-8.513,4.507-22.032,12.017-22.032,12.017L366.107,134.327z"/>
	<path fill="#FFFFFF" d="M371.632,131.451c0,0-1.644-25.061,19.309-28.759c20.953-3.698,31.225,19.31,31.225,19.31
		s-24.65-1.232-31.635,2.465c-6.985,3.698-18.078,9.86-18.078,9.86L371.632,131.451z"/>
	<path d="M429.166,147.672c0,0,75.691-30.942,101.396-31.894c0,0,11.424,0.952-19.518,11.425
		c-30.943,10.473-60.933,23.326-60.933,23.326L429.166,147.672z"/>
	<path d="M381.625,173.317c0,0-78.244,23.755-103.926,22.309c0,0-11.287-2.012,20.498-9.557c31.783-7.544,62.84-17.547,62.84-17.547
		L381.625,173.317z"/>
	<circle cx="405.841" cy="173.379" r="56.172"/>
	<circle fill="#FFFFFF" cx="405.839" cy="173.379" r="44.747"/>
	<circle cx="404.887" cy="172.903" r="25.229"/>
	<path d="M397.748,172.903c0,0-70.454,38.083-96.16,49.032c-25.706,10.948-50.936,19.994-55.22,12.375
		c-4.284-7.615,18.089-21.896,39.511-30.942c21.421-9.043,110.917-34.749,110.917-34.749L397.748,172.903z"/>
	<path d="M402.562,163.378c0,0,0.271-80.087,2.957-107.898c2.687-27.812,6.816-54.293,15.556-54.411
		c8.738-0.117,10.57,26.362,8.263,49.5c-2.308,23.138-22.556,114.023-22.556,114.023L402.562,163.378z"/>
	<path d="M408.532,172.354c0,0,68.839,40.927,91.428,57.373c22.587,16.444,43.299,33.458,38.961,41.044
		c-4.342,7.585-28.079-4.289-46.836-18.035c-18.755-13.745-86.743-77.366-86.743-77.366L408.532,172.354z"/>
	<circle fill="#FFFFFF" cx="403.936" cy="168.619" r="7.14"/>
	<path d="M381.629,104.784c0,0-9.513-44.065-10.516-49.072c-1.001-5.007,3.004-8.513,4.507-2.504
		c1.503,6.008,18.027,47.57,18.027,47.57L381.629,104.784z"/>
	<path fill="#FFFFFF" d="M528.346,183.15c0,4.285-3.476,7.761-7.763,7.761h-35.554c-4.283,0-7.759-3.476-7.759-7.761l0,0
		c0-4.288,3.476-7.763,7.759-7.763h35.554C524.87,175.388,528.346,178.862,528.346,183.15L528.346,183.15z"/>
	<path fill="#FFFFFF" d="M356.149,227.47c2.648,3.372,2.059,8.252-1.312,10.898l-27.966,21.952
		c-3.372,2.645-8.25,2.057-10.897-1.313l0,0c-2.646-3.373-2.059-8.252,1.313-10.898l27.965-21.95
		C348.625,223.51,353.503,224.099,356.149,227.47L356.149,227.47z"/>
	<rect x="403.16" y="192.412" width="3.004" height="29.545"/>
	<rect x="396.598" y="191.954" transform="matrix(0.9799 0.1995 -0.1995 0.9799 49.2503 -75.2729)" width="3.005" height="29.542"/>
	
		<rect x="379.452" y="183.304" transform="matrix(0.7005 0.7137 -0.7137 0.7005 255.4555 -212.5466)" width="3.005" height="29.543"/>
	<rect x="375.076" y="178.142" transform="matrix(0.539 0.8423 -0.8423 0.539 336.1124 -228.2628)" width="3.005" height="29.544"/>
	
		<rect x="370.599" y="150.635" transform="matrix(-0.3032 0.9529 -0.9529 -0.3032 642.5342 -139.0338)" width="3.004" height="29.543"/>
	
		<rect x="373.651" y="143.365" transform="matrix(-0.522 0.8529 -0.8529 -0.522 705.8737 -79.2904)" width="3.004" height="29.543"/>
	
		<rect x="386.866" y="130.582" transform="matrix(-0.8987 0.4385 -0.4385 -0.8987 801.146 105.6932)" width="3.006" height="29.542"/>
	
		<rect x="392.242" y="128.335" transform="matrix(-0.9622 0.2725 -0.2725 -0.9622 811.5854 173.4964)" width="3.005" height="29.541"/>
	
		<rect x="415.802" y="129.772" transform="matrix(-0.896 -0.4441 0.4441 -0.896 727.0106 459.3704)" width="3.004" height="29.542"/>
	<rect x="422.016" y="133.563" transform="matrix(-0.7741 -0.633 0.633 -0.7741 657.4773 531.262)" width="3.004" height="29.542"/>
	<polygon points="450.132,165.744 450.505,168.726 421.194,172.411 420.815,169.429 	"/>
	
		<rect x="434.422" y="161.615" transform="matrix(0.1021 -0.9948 0.9948 0.1021 215.9615 592.0278)" width="3.004" height="29.541"/>
	<rect x="423.803" y="182.282" transform="matrix(0.7579 -0.6523 0.6523 0.7579 -25.594 325.1303)" width="3.005" height="29.541"/>
</g>
</svg>
